# xmcd CD database file
#
# Track frame offsets:
#	150
#	15995
#	29732
#	45111
#	64502
#	75824
#	90006
#	106494
#	124239
#	148918
#	160848
#	181700
#	198302
#
# Disc length: 2765 seconds
#
# Revision: 0
# Processed by: cddbd v1.5.1PL0 Copyright (c) Steve Scherf et al.
# Submitted via: CDex 1.51
#
DISCID=910acb0d
DTITLE=Sweet Laredo - Sweet Laredo
DYEAR=2003
DGENRE=Jazz
TTITLE0=Once were mine
TTITLE1=Make the sun shine
TTITLE2=All our times are good times
TTITLE3=Don't worry 'bout it
TTITLE4=All I need
TTITLE5=Sarah's song
TTITLE6=Ever since
TTITLE7=Daddy's place
TTITLE8=Easy to bear
TTITLE9=Assess the mess
TTITLE10=All day I dream about...
TTITLE11=Country pumpkin
TTITLE12=Bonus Track
EXTD=YEAR: 2003
EXTT0=
EXTT1=
EXTT2=
EXTT3=
EXTT4=
EXTT5=
EXTT6=
EXTT7=
EXTT8=
EXTT9=
EXTT10=
EXTT11=
EXTT12=
PLAYORDER=
